<svg xmlns="http://www.w3.org/2000/svg" viewBox="0 0 512 512">
  <rect width="512" height="512" rx="81" ry="81" fill="#e6e6e6"/>
  <g fill="#b32328" transform="translate(71.680,129.897) scale(3.54871)">
    <polygon points="0.2,0 0.18,13.75 0.16,14.66 87.16,14.96 87.16,13.92 71.93,0"/>
    <polygon points="103.81,27.52 103.82,40.98 31.27,41 31.27,40.05 42.48,27.5"/>
    <polygon points="21.66,68.27 0,68.13 0.04,53.96 11.09,54 21.66,67.3"/>
    <polygon points="103.75,53.99 103.73,68.15 60.13,68.08 60.13,67.1 69.99,53.96"/>
    <polygon points="0.01,66.8 103.73,66.8 103.73,71.07 0.01,71.07"/>
    <polygon points="103.82,39.88 0.1,39.88 0.06,43.86 103.82,43.85"/>
    <polygon points="103.88,13.89 0.18,13.89 0.15,18.05 103.87,18.05"/>
  </g>
</svg>
