<?xml version="1.0" encoding="UTF-8"?>
<svg id="Layer_2" data-name="Layer 2" xmlns="http://www.w3.org/2000/svg" viewBox="0 0 130.25 27.44">
  <defs>
    <style>
      .cls-1 {
        fill: #ebebeb;
      }

      .cls-2 {
        fill: #b32328;
      }
    </style>
  </defs>
  <g id="Layer_1-2" data-name="Layer 1">
    <g>
      <g>
        <path class="cls-1" d="M.11,15.67V0h5.58c1.21,0,2.22.21,3.03.63.8.42,1.4,1,1.8,1.73.4.74.6,1.59.6,2.55s-.2,1.8-.6,2.53c-.4.73-1,1.29-1.81,1.69-.8.4-1.81.6-3.03.6H1.46v-2.04h4.02c.76,0,1.39-.11,1.87-.33.48-.22.83-.54,1.06-.96.22-.42.34-.92.34-1.51s-.11-1.1-.34-1.54c-.23-.43-.58-.77-1.06-1-.48-.23-1.11-.35-1.89-.35h-2.97v13.64H.11ZM7.85,8.6l3.87,7.07h-2.69l-3.79-7.07h2.62Z"/>
        <path class="cls-1" d="M31.86,0h2.37v10.3c0,1.1-.26,2.07-.77,2.91-.52.84-1.24,1.51-2.17,1.99-.93.48-2.03.72-3.28.72s-2.34-.24-3.27-.72c-.93-.48-1.66-1.14-2.17-1.99-.52-.84-.77-1.81-.77-2.91V0h2.36v10.11c0,.71.16,1.34.47,1.89s.76.98,1.34,1.3c.58.31,1.26.47,2.05.47s1.48-.16,2.06-.47c.58-.31,1.02-.75,1.33-1.3s.46-1.18.46-1.89V0Z"/>
        <path class="cls-1" d="M45.45,15.67V0h5.74c1.11,0,2.03.18,2.76.55.73.36,1.28.86,1.64,1.48.36.62.54,1.32.54,2.09,0,.65-.12,1.2-.36,1.65-.24.45-.56.8-.96,1.07-.4.27-.84.46-1.32.59v.15c.52.03,1.03.19,1.53.5.5.31.91.75,1.24,1.31.33.57.49,1.25.49,2.07s-.19,1.52-.56,2.15-.95,1.14-1.73,1.51-1.78.55-2.99.55h-6.01ZM47.81,6.78h3.17c.53,0,1.01-.1,1.43-.31.43-.2.76-.49,1.02-.86s.38-.81.38-1.31c0-.65-.23-1.19-.68-1.63-.45-.44-1.15-.66-2.09-.66h-3.23v4.77ZM47.81,13.64h3.41c1.13,0,1.94-.22,2.43-.66.49-.44.73-.99.73-1.64,0-.49-.13-.95-.37-1.36-.25-.41-.61-.74-1.07-.99-.46-.24-1.01-.37-1.64-.37h-3.5v5.02Z"/>
        <path class="cls-1" d="M66.11,0h2.69l4.09,7.12h.17l4.09-7.12h2.69l-5.68,9.52v6.15h-2.36v-6.15l-5.68-9.52Z"/>
      </g>
      <g>
        <path class="cls-1" d="M103.54,27.44c-2.5,0-4.61-.47-6.34-1.42-1.73-.94-3.05-2.28-3.94-4-.9-1.72-1.34-3.76-1.34-6.11V.18h5.96v15.96c0,1.16.22,2.18.67,3.03.45.86,1.09,1.52,1.93,1.98.84.46,1.86.69,3.07.69s2.24-.23,3.09-.69c.85-.46,1.48-1.11,1.91-1.96.42-.85.64-1.87.64-3.05V.18h6v15.74c0,2.35-.45,4.39-1.34,6.11-.9,1.72-2.2,3.05-3.92,4-1.72.94-3.84,1.42-6.36,1.42Z"/>
        <path class="cls-1" d="M124.29,26.71V.18h5.96v26.53h-5.96Z"/>
      </g>
      <g>
        <polygon class="cls-2" points="58.08 20.75 62.39 25.85 62.4 26.19 30.17 26.21 30.17 25.82 35.02 20.75 58.08 20.75"/>
        <polygon class="cls-2" points="0 20.75 0 25.95 23.27 25.95 23.27 25.59 19.7 20.75 0 20.75"/>
        <polygon class="cls-2" points="69.38 26.07 80.25 26.04 80.25 20.75 73.72 20.75 69.38 25.71 69.38 26.07"/>
        <rect class="cls-2" x="0" y="25.44" width="80.25" height="1.55"/>
      </g>
    </g>
  </g>
</svg>